<?xml version="1.0" standalone="no"?>
<!DOCTYPE svg PUBLIC "-//W3C//DTD SVG 20010904//EN"
 "http://www.w3.org/TR/2001/REC-SVG-20010904/DTD/svg10.dtd">
<svg version="1.0" xmlns="http://www.w3.org/2000/svg"
 width="1024.000000pt" height="1024.000000pt" viewBox="0 0 1024.000000 1024.000000"
 preserveAspectRatio="xMidYMid meet">

<g transform="translate(0.000000,1024.000000) scale(0.100000,-0.100000)"
fill="#000000" stroke="none">
<path d="M4890 9408 c-309 -23 -685 -114 -1018 -247 -868 -346 -1552 -1024
-1865 -1848 -201 -526 -239 -1127 -107 -1653 136 -539 443 -1075 837 -1462
109 -107 262 -238 279 -238 6 0 31 7 54 15 23 8 76 15 117 15 l74 0 -78 61
c-110 87 -393 373 -497 504 -48 61 -120 160 -160 220 -85 127 -206 336 -206
355 0 9 9 11 31 6 17 -3 248 -9 513 -13 l483 -6 33 -91 c131 -357 290 -666
570 -1106 161 -253 179 -280 229 -332 19 -21 30 -38 24 -38 -25 0 -413 152
-440 173 -28 20 -10 -9 53 -89 104 -134 172 -202 223 -225 124 -55 422 -131
645 -164 353 -52 789 -34 1070 45 39 11 71 18 73 16 5 -5 -142 -94 -223 -136
-154 -78 -420 -116 -744 -107 -215 5 -366 25 -539 68 -63 16 -116 27 -118 26
-1 -2 36 -47 83 -100 47 -53 81 -97 76 -97 -12 0 -188 183 -363 376 -357 397
-450 485 -571 542 -199 93 -419 60 -483 -74 -20 -43 -22 -139 -5 -205 18 -67
83 -189 249 -469 228 -383 355 -651 410 -865 46 -176 54 -264 57 -630 2 -192
6 -360 9 -373 7 -27 60 -62 96 -62 14 0 37 11 51 23 24 23 26 32 33 163 13
227 0 588 -25 734 -52 299 -205 650 -455 1040 -12 19 -72 112 -133 206 -161
251 -177 287 -147 344 54 104 243 63 405 -87 39 -36 147 -152 238 -257 290
-334 654 -684 822 -791 83 -53 118 -65 196 -65 75 0 138 22 304 105 254 127
784 471 1164 753 267 199 319 235 413 280 66 31 87 36 151 36 67 1 76 -1 94
-24 31 -38 21 -105 -27 -177 -43 -66 -389 -414 -544 -548 -57 -50 -172 -147
-255 -218 -179 -151 -196 -169 -196 -208 0 -73 74 -89 157 -35 217 143 735
612 966 876 233 265 314 328 434 338 48 4 55 2 83 -26 25 -25 30 -38 30 -78 0
-168 -297 -511 -926 -1067 -62 -54 -117 -110 -123 -123 -30 -67 2 -124 70
-124 45 0 114 52 320 241 307 280 525 509 729 764 178 222 266 295 359 295 72
0 120 -67 105 -147 -10 -55 -83 -195 -149 -288 -147 -205 -375 -451 -678 -732
-98 -92 -185 -179 -193 -194 -44 -86 22 -152 109 -109 90 44 573 526 762 761
86 106 120 156 255 370 25 40 57 78 74 86 26 14 31 13 55 -4 69 -52 51 -230
-44 -431 -124 -261 -293 -477 -710 -902 -308 -314 -426 -463 -506 -635 -44
-94 -45 -107 -10 -128 42 -24 109 -31 155 -15 36 12 45 23 99 123 109 201 186
301 441 570 281 297 398 438 526 630 259 393 332 776 174 914 -38 34 -103 48
-156 33 l-36 -10 -6 47 c-8 65 -51 146 -92 178 -96 72 -272 60 -400 -28 l-41
-28 -12 53 c-16 72 -51 119 -108 147 -41 20 -63 24 -143 23 -82 0 -106 -5
-175 -32 -49 -19 -104 -51 -143 -82 l-62 -51 -10 26 c-6 15 -10 30 -10 35 0 5
-16 25 -35 44 -105 106 -319 81 -557 -65 -246 -150 -293 -177 -297 -173 -3 2
9 19 26 37 42 44 96 127 193 297 176 307 317 614 446 975 35 99 69 190 74 203
l10 22 289 0 c278 0 710 14 779 26 l33 5 -42 -82 c-22 -45 -70 -130 -106 -188
-226 -366 -484 -643 -840 -901 -64 -46 -75 -60 -48 -60 23 0 76 -29 107 -58
l28 -26 42 24 c24 13 72 44 108 68 633 435 1109 1239 1215 2052 95 730 -95
1478 -526 2077 -283 392 -707 750 -1174 990 -597 306 -1227 439 -1855 391z
m151 -254 c-24 -185 -32 -396 -38 -925 l-5 -546 -217 -6 c-119 -4 -304 -7
-411 -7 -107 0 -358 -5 -558 -11 -200 -6 -365 -9 -368 -7 -9 10 97 281 165
423 159 331 343 585 618 852 135 131 130 123 111 203 -8 35 383 108 652 123
25 1 49 -1 53 -4 5 -4 4 -47 -2 -95z m434 85 c94 -9 302 -47 389 -70 l38 -10
-6 -43 c-8 -52 3 -68 111 -159 259 -219 520 -601 672 -984 45 -116 114 -314
109 -318 -2 -2 -104 1 -228 5 -324 12 -721 20 -1058 20 l-292 0 0 788 1 789
82 -4 c45 -2 127 -8 182 -14z m721 -163 c661 -225 1247 -661 1599 -1191 86
-130 188 -305 181 -312 -2 -3 -28 0 -58 6 -109 22 -442 50 -779 67 l-135 6
-28 92 c-105 348 -312 732 -547 1019 -68 83 -264 283 -313 318 -21 16 -35 29
-29 29 5 0 54 -15 109 -34z m-2076 -24 c-385 -329 -686 -789 -860 -1314 -36
-110 -33 -108 -151 -108 -96 0 -403 -25 -614 -49 -88 -10 -161 -18 -163 -16
-6 5 97 179 183 310 304 458 705 799 1248 1060 106 51 385 164 407 164 3 0
-20 -21 -50 -47z m882 -1859 c4 -611 3 -1026 -6 -1461 l-9 -442 -746 2 -745 3
-28 90 c-185 589 -237 1163 -157 1720 22 154 64 354 77 367 13 13 489 25 1075
26 l537 2 2 -307z m1528 295 c140 -5 268 -12 285 -16 28 -8 30 -13 47 -98 121
-606 92 -1245 -87 -1897 -18 -67 -38 -142 -45 -166 l-12 -44 -306 7 c-169 3
-508 6 -754 7 -247 0 -450 4 -453 9 -8 13 -8 1761 0 1993 l8 217 531 -1 c292
-1 646 -6 786 -11z m-3366 -75 c-21 -69 -52 -248 -70 -398 -33 -285 -28 -683
12 -965 32 -226 112 -569 164 -701 11 -27 20 -52 20 -54 0 -5 -1029 5 -1046
10 -16 5 -99 235 -134 369 -64 249 -75 345 -75 656 0 306 8 388 62 610 28 118
90 307 133 408 l28 67 239 7 c131 5 321 14 423 22 102 7 201 14 222 15 l36 1
-14 -47z m4266 22 c179 -14 392 -25 474 -24 l149 1 14 -34 c219 -510 262
-1134 118 -1693 -32 -122 -84 -283 -119 -366 l-15 -36 -152 -6 c-156 -7 -969
-10 -969 -4 0 2 20 80 45 173 152 569 197 1088 140 1614 -13 122 -48 338 -61
383 -7 22 -18 22 376 -8z m-2443 -2339 c1 -1 10 -153 18 -337 10 -221 14 -500
13 -824 -2 -269 1 -503 5 -519 l8 -29 -93 7 c-120 8 -305 39 -438 72 -135 34
-140 37 -140 79 0 46 -116 274 -226 445 -255 394 -408 690 -558 1079 l-17 44
713 -7 c392 -4 714 -8 715 -10z m1670 -10 c3 -3 -96 -283 -150 -421 -82 -214
-246 -553 -392 -815 -41 -74 -101 -183 -133 -243 l-57 -107 -65 -20 c-156 -47
-486 -100 -626 -100 l-37 0 7 453 c9 541 9 1011 0 1161 l-7 109 728 -7 c401
-3 730 -8 732 -10z"/>
</g>
</svg>
